<svg width="190" height="66" viewBox="0 0 190 66" fill="none" xmlns="http://www.w3.org/2000/svg">
<path d="M22.5682 33.0732C22.5255 33.347 22.425 33.6089 22.2735 33.8415C22.1221 34.074 21.9232 34.2717 21.6903 34.4212C21.4575 34.5708 21.196 34.6687 20.9235 34.7083C20.6511 34.7479 20.374 34.7284 20.111 34.651C19.8201 34.5678 19.5539 34.4158 19.3342 34.2077C19.1322 34.019 18.9735 33.7881 18.8692 33.5309C18.7648 33.2736 18.7172 32.9961 18.7296 32.7173C18.742 32.4385 18.8141 32.165 18.9409 31.9156C19.0678 31.6662 19.2465 31.4468 19.4646 31.2724C19.582 31.1755 19.711 31.0939 19.8484 31.0295C20.112 30.9034 20.3998 30.8388 20.6903 30.8404C20.9808 30.8421 21.2664 30.91 21.5257 31.0391C21.785 31.1682 22.0112 31.3551 22.1873 31.5857C22.3634 31.8163 22.4849 32.0847 22.5425 32.3707C22.5928 32.601 22.6015 32.8389 22.5682 33.0732Z" fill="#02B6DF"/>
<path d="M36.0719 21.0022C36.1111 20.8 36.1833 20.6059 36.2855 20.4275C36.4988 20.0551 36.8309 19.7648 37.2297 19.6021C37.6285 19.4394 38.0714 19.4136 38.489 19.5286C38.6459 19.5727 38.7969 19.6357 38.9387 19.7163C39.3863 19.9718 39.7152 20.3928 39.8529 20.8868C39.9905 21.3809 39.9258 21.9074 39.6729 22.3506C39.6559 22.3803 39.64 22.4082 39.6241 22.436C39.387 22.8267 39.0171 23.1195 38.5807 23.2619C38.1443 23.4043 37.6699 23.3871 37.2424 23.2133C36.8149 23.0395 36.4622 22.7205 36.2475 22.3134C36.0328 21.9063 35.97 21.4377 36.0706 20.9915L36.0719 21.0022Z" fill="#03C7EE"/>
<path d="M37.0611 25.6056L37.1022 39.299C36.4453 39.5149 35.8508 39.8872 35.3698 40.3839L24.6973 34.2936C25.0826 33.2642 25.0578 32.126 24.628 31.1143L35.1471 24.6294C35.3663 24.824 35.6054 24.9952 35.8604 25.1401C36.2349 25.3548 36.6397 25.5117 37.0611 25.6056Z" fill="url(#paint0_linear_18_89)"/>
<path d="M40.1127 44.3383C39.9981 44.5408 39.8471 44.7204 39.6673 44.8682C39.3956 45.0906 39.0683 45.2346 38.7206 45.2846C38.3729 45.3346 38.0181 45.2887 37.6945 45.1519C37.3708 45.0151 37.0907 44.7925 36.8842 44.5083C36.6777 44.224 36.5528 43.8889 36.5229 43.539C36.4931 43.1891 36.5594 42.8378 36.7147 42.5229C36.87 42.2081 37.1084 41.9417 37.4042 41.7525C37.7 41.5633 38.0419 41.4585 38.3931 41.4494C38.7443 41.4403 39.0913 41.5273 39.3968 41.7009C39.4904 41.7542 39.5795 41.8149 39.6633 41.8826C40.0149 42.1741 40.2526 42.58 40.3348 43.0291C40.417 43.4781 40.3383 43.9416 40.1127 44.3383Z" fill="#02A8D2"/>
<path d="M44.4421 11.785C33.0364 5.27638 18.464 9.33348 11.8945 20.8458C5.32505 32.358 9.24624 46.966 20.6519 53.4747C32.0576 59.9833 46.627 55.927 53.1965 44.4147C59.766 32.9025 55.8459 18.2926 44.4421 11.785ZM36.3285 47.115C35.568 46.6827 34.958 46.0281 34.5804 45.2389C34.2027 44.4498 34.0755 43.5639 34.2159 42.7002L23.082 36.3466C22.4492 36.775 21.7134 37.0266 20.9508 37.0751C20.1883 37.1237 19.4267 36.9675 18.7448 36.6228C18.063 36.278 17.4858 35.7573 17.0728 35.1144C16.6599 34.4715 16.4263 33.7299 16.3961 32.9663C16.366 32.2026 16.5405 31.4448 16.9016 30.7711C17.2626 30.0975 17.7971 29.5325 18.4496 29.1347C19.1022 28.737 19.8491 28.5208 20.6131 28.5087C21.3771 28.4965 22.1304 28.6888 22.795 29.0657C22.8397 29.0912 22.8843 29.1167 22.9271 29.1411L33.8106 22.4284C33.6181 21.632 33.6578 20.797 33.9251 20.0224C34.1923 19.2477 34.6758 18.5658 35.3184 18.0574C35.961 17.5489 36.7357 17.2352 37.5509 17.1534C38.3661 17.0716 39.1875 17.2251 39.918 17.5957C40.6485 17.9664 41.2575 18.5386 41.6728 19.2448C42.0882 19.9509 42.2925 20.7614 42.2616 21.5802C42.2306 22.399 41.9658 23.1919 41.4984 23.865C41.031 24.5381 40.3806 25.0632 39.6243 25.3781L39.6714 39.2591C39.9891 39.3528 40.2948 39.4833 40.5822 39.648C41.5716 40.2126 42.2961 41.1472 42.5963 42.2463C42.8965 43.3454 42.7479 44.5189 42.1831 45.5087C41.6183 46.4985 40.6836 47.2234 39.5846 47.524C38.4856 47.8247 37.3124 47.6764 36.323 47.1118L36.3285 47.115Z" fill="url(#paint1_linear_18_89)"/>
<path d="M65.5082 19.2293H84.0362V23.5493H77.1562V41.6293H72.3882V23.5493H65.5082V19.2293ZM83.7164 34.8133C83.2257 33.4267 82.9804 31.9653 82.9804 30.4293C82.9804 28.8933 83.2257 27.432 83.7164 26.0453C84.2284 24.6587 84.9644 23.4213 85.9244 22.3333C86.9057 21.2453 88.1644 20.3813 89.7004 19.7413C91.2364 19.1013 92.9644 18.7813 94.8844 18.7813C96.8044 18.7813 98.5324 19.1013 100.068 19.7413C101.604 20.3813 102.852 21.2453 103.812 22.3333C104.794 23.4213 105.53 24.6587 106.02 26.0453C106.532 27.432 106.788 28.8933 106.788 30.4293C106.788 31.9653 106.532 33.4267 106.02 34.8133C105.53 36.2 104.794 37.4373 103.812 38.5253C102.852 39.6133 101.604 40.4773 100.068 41.1173C98.5324 41.7573 96.8044 42.0773 94.8844 42.0773C92.9644 42.0773 91.2364 41.7573 89.7004 41.1173C88.1644 40.4773 86.9057 39.6133 85.9244 38.5253C84.9644 37.4373 84.2284 36.2 83.7164 34.8133ZM100.036 35.5813C101.252 34.216 101.86 32.4987 101.86 30.4293C101.86 28.36 101.252 26.6427 100.036 25.2773C98.8204 23.912 97.1031 23.2293 94.8844 23.2293C92.6444 23.2293 90.9164 23.912 89.7004 25.2773C88.4844 26.6427 87.8764 28.36 87.8764 30.4293C87.8764 32.4987 88.4844 34.216 89.7004 35.5813C90.9164 36.9467 92.6444 37.6293 94.8844 37.6293C97.1031 37.6293 98.8204 36.9467 100.036 35.5813ZM112.273 41.6293H107.473V19.2293H111.985L122.417 33.8533C122.353 32.936 122.321 31.912 122.321 30.7813V19.2293H127.121V41.6293H122.609L112.177 27.0053C112.241 27.9227 112.273 28.9467 112.273 30.0773V41.6293ZM128.007 19.2293H146.535V23.5493H139.655V41.6293H134.887V23.5493H128.007V19.2293ZM152.246 41.6293H147.446V19.2293H156.662C157.835 19.2293 158.913 19.3467 159.894 19.5813C160.897 19.816 161.835 20.2 162.71 20.7333C163.606 21.2667 164.299 22.024 164.79 23.0053C165.302 23.9867 165.558 25.16 165.558 26.5253C165.558 29.9173 163.926 32.136 160.662 33.1813L167.35 41.6293H161.814L155.766 33.7893H152.246V41.6293ZM152.246 23.4533V29.7893H156.886C157.974 29.7893 158.87 29.5333 159.574 29.0213C160.299 28.488 160.662 27.688 160.662 26.6213C160.662 25.5333 160.31 24.7333 159.606 24.2213C158.902 23.7093 157.995 23.4533 156.886 23.4533H152.246ZM170.776 41.6293H165.816L174.968 19.2293H180.152L189.272 41.6293H184.312L182.68 37.4373H172.44L170.776 41.6293ZM177.048 25.4373L173.944 33.4693H181.176L178.04 25.4373C177.826 24.84 177.666 24.2533 177.56 23.6773C177.432 24.3387 177.261 24.9253 177.048 25.4373Z" fill="#656B8A"/>
<defs>
<linearGradient id="paint0_linear_18_89" x1="32.518" y1="23.5196" x2="33.5202" y2="48.0808" gradientUnits="userSpaceOnUse">
<stop stop-color="#04D8FD"/>
<stop offset="1" stop-color="#0197C4"/>
</linearGradient>
<linearGradient id="paint1_linear_18_89" x1="31.5915" y1="6.22979" x2="31.3532" y2="66.1106" gradientUnits="userSpaceOnUse">
<stop offset="0.195052" stop-color="#04D8FD"/>
<stop offset="1" stop-color="#0095D6"/>
</linearGradient>
</defs>
</svg>
