<svg width="83" height="17" viewBox="0 0 83 17" fill="none" xmlns="http://www.w3.org/2000/svg">
<path d="M0.375488 0.835888H12.6781V3.77349H8.10978V16.0679H4.94381V3.77349H0.375488V0.835888ZM12.4658 11.433C12.1399 10.4901 11.9771 9.49637 11.9771 8.45189C11.9771 7.40741 12.1399 6.4137 12.4658 5.47077C12.8057 4.52784 13.2944 3.68645 13.9319 2.94661C14.5835 2.20677 15.4192 1.61925 16.4391 1.18405C17.459 0.748848 18.6064 0.53125 19.8813 0.53125C21.1562 0.53125 22.3036 0.748848 23.3235 1.18405C24.3434 1.61925 25.1721 2.20677 25.8095 2.94661C26.4611 3.68645 26.9498 4.52784 27.2756 5.47077C27.6156 6.4137 27.7856 7.40741 27.7856 8.45189C27.7856 9.49637 27.6156 10.4901 27.2756 11.433C26.9498 12.376 26.4611 13.2173 25.8095 13.9572C25.1721 14.697 24.3434 15.2845 23.3235 15.7197C22.3036 16.1549 21.1562 16.3725 19.8813 16.3725C18.6064 16.3725 17.459 16.1549 16.4391 15.7197C15.4192 15.2845 14.5835 14.697 13.9319 13.9572C13.2944 13.2173 12.8057 12.376 12.4658 11.433ZM23.3022 11.9553C24.1097 11.0268 24.5134 9.85902 24.5134 8.45189C24.5134 7.04477 24.1097 5.87696 23.3022 4.94853C22.4948 4.0201 21.3545 3.55589 19.8813 3.55589C18.3939 3.55589 17.2466 4.0201 16.4391 4.94853C15.6317 5.87696 15.228 7.04477 15.228 8.45189C15.228 9.85902 15.6317 11.0268 16.4391 11.9553C17.2466 12.8837 18.3939 13.3479 19.8813 13.3479C21.3545 13.3479 22.4948 12.8837 23.3022 11.9553ZM31.4276 16.0679H28.2404V0.835888H31.2364L38.1632 10.7802C38.1207 10.1565 38.0995 9.46013 38.0995 8.69125V0.835888H41.2867V16.0679H38.2907L31.3639 6.12357C31.4064 6.74736 31.4276 7.44366 31.4276 8.21253V16.0679ZM41.8746 0.835888H54.1772V3.77349H49.6089V16.0679H46.443V3.77349H41.8746V0.835888ZM57.9693 16.0679H54.7821V0.835888H60.9016C61.6806 0.835888 62.396 0.915679 63.0476 1.07525C63.7134 1.23482 64.3366 1.49594 64.9174 1.85861C65.5124 2.22128 65.9727 2.73626 66.2986 3.40357C66.6386 4.07088 66.8086 4.86874 66.8086 5.79717C66.8086 8.10373 65.7249 9.61245 63.5576 10.3233L67.9985 16.0679H64.3225L60.3066 10.7367H57.9693V16.0679ZM57.9693 3.70821V8.01669H61.0503C61.7727 8.01669 62.3677 7.84261 62.8351 7.49445C63.3167 7.13181 63.5576 6.58778 63.5576 5.86245C63.5576 5.12261 63.3238 4.57861 62.8564 4.23045C62.3889 3.88229 61.7869 3.70821 61.0503 3.70821H57.9693ZM70.2733 16.0679H66.9799L73.0568 0.835888H76.499L82.5547 16.0679H79.2612L78.1776 13.2173H71.3782L70.2733 16.0679ZM74.4379 5.05733L72.3769 10.5191H77.1789L75.0966 5.05733C74.9545 4.65114 74.8483 4.25221 74.7779 3.86053C74.6929 4.31024 74.5794 4.70917 74.4379 5.05733Z" fill="white"/>
</svg>
